<svg data-logo="logo" xmlns="http://www.w3.org/2000/svg" viewBox="0 0 201 36">
        <g style="opacity: 1;" id="logogram" transform="translate(0, 1) rotate(0)"><path d="M15.4992 0H36.5808L21.0816 22.9729H0L15.4992 0Z" fill="#007AFF"></path><path d="M16.4224 25.102L10.4192 34H32.5008L48 11.0271H31.7024L22.2064 25.102H16.4224Z" fill="#312ECB"></path></g>
        <g style="opacity: 1;" id="logotype" transform="translate(54, 5)"><path fill="#ffffff" d="M7.22 13.87L7.22 12.61Q7.22 8.86 8.68 6.19Q10.13 3.51 12.83 2.07Q15.52 0.64 19.13 0.64L19.13 0.64Q21.96 0.64 24.20 1.57Q26.44 2.49 27.84 4.31Q29.24 6.13 29.52 8.86L29.52 8.86L24.34 8.86Q24.10 6.94 22.63 5.85Q21.16 4.77 18.88 4.77L18.88 4.77Q15.84 4.77 14.12 6.76Q12.41 8.76 12.41 12.47L12.41 12.47L12.41 13.73Q12.41 17.61 14.21 19.52Q16.01 21.43 18.91 21.43L18.91 21.43Q21.26 21.43 22.73 20.26Q24.20 19.09 24.48 17.05L24.48 17.05L29.59 17.05Q29.35 19.71 27.95 21.62Q26.55 23.53 24.24 24.55Q21.93 25.56 18.91 25.56L18.91 25.56Q15.31 25.56 12.67 24.16Q10.03 22.76 8.63 20.13Q7.22 17.51 7.22 13.87L7.22 13.87ZM36.73 15.62L36.73 16.60Q36.73 19.23 37.90 20.38Q39.08 21.54 40.90 21.54L40.90 21.54Q42.72 21.54 43.87 20.38Q45.03 19.23 45.03 16.74L45.03 16.74L45.03 15.76Q45.03 13.17 43.85 11.94Q42.68 10.72 40.90 10.72L40.90 10.72Q39.08 10.72 37.90 11.93Q36.73 13.13 36.73 15.62L36.73 15.62ZM49.96 15.62L49.96 16.60Q49.96 19.43 48.81 21.41Q47.65 23.39 45.60 24.41Q43.56 25.42 40.90 25.42L40.90 25.42Q38.20 25.42 36.17 24.41Q34.14 23.39 32.97 21.45Q31.80 19.50 31.80 16.74L31.80 16.74L31.80 15.76Q31.80 12.92 32.97 10.93Q34.14 8.93 36.19 7.88Q38.23 6.83 40.90 6.83L40.90 6.83Q43.56 6.83 45.60 7.88Q47.65 8.93 48.81 10.89Q49.96 12.85 49.96 15.62L49.96 15.62ZM57.70 25L52.83 25L52.83 7.25L57.45 7.25L57.45 11.80L57.07 11.80Q57.56 9.56 58.78 8.30Q60.01 7.04 62.60 7.04L62.60 7.04L63.79 7.04L63.79 11.28L62.35 11.28Q59.87 11.28 58.78 12.42Q57.70 13.55 57.70 15.83L57.70 15.83L57.70 25ZM64.98 16.63L64.98 15.79Q64.98 12.96 66.13 10.96Q67.29 8.97 69.33 7.90Q71.38 6.83 73.94 6.83L73.94 6.83Q76.49 6.83 78.43 7.85Q80.38 8.86 81.48 10.86Q82.58 12.85 82.58 15.79L82.58 15.79L82.58 17.16L67.98 17.16L67.98 14.04L78.31 14.04L77.75 14.46Q77.75 12.43 76.67 11.40Q75.58 10.37 73.80 10.37L73.80 10.37Q72.01 10.37 70.91 11.45Q69.81 12.54 69.81 14.50L69.81 14.50L69.81 17.16Q69.81 19.43 71.00 20.64Q72.19 21.85 74.04 21.85L74.04 21.85Q75.51 21.85 76.44 21.22Q77.37 20.59 77.68 19.57L77.68 19.57L82.27 19.57Q81.81 22.30 79.64 23.86Q77.47 25.42 74.04 25.42L74.04 25.42Q71.28 25.42 69.23 24.39Q67.18 23.36 66.08 21.38Q64.98 19.40 64.98 16.63L64.98 16.63ZM103.62 15.55L103.62 16.67Q103.62 19.47 102.55 21.41Q101.48 23.36 99.71 24.39Q97.95 25.42 95.78 25.42L95.78 25.42Q94.03 25.42 92.61 24.75Q91.19 24.09 90.32 22.83Q89.44 21.57 89.30 19.82L89.30 19.82L89.97 20.66L89.97 25L85.35 25L85.35 0.74L90.21 0.74L90.21 11.56L89.30 12.40Q89.65 9.77 91.47 8.30Q93.29 6.83 95.92 6.83L95.92 6.83Q98.09 6.83 99.82 7.85Q101.55 8.86 102.58 10.81Q103.62 12.75 103.62 15.55L103.62 15.55ZM94.52 21.54L94.52 21.54Q96.37 21.54 97.53 20.29Q98.68 19.05 98.68 16.67L98.68 16.67L98.68 15.55Q98.68 13.20 97.53 11.96Q96.37 10.72 94.48 10.72L94.48 10.72Q92.66 10.72 91.44 11.96Q90.21 13.20 90.21 15.48L90.21 15.48L90.21 16.77Q90.21 18.28 90.79 19.35Q91.37 20.41 92.35 20.98Q93.33 21.54 94.52 21.54ZM110.51 15.62L110.51 16.60Q110.51 19.23 111.68 20.38Q112.86 21.54 114.68 21.54L114.68 21.54Q116.50 21.54 117.65 20.38Q118.81 19.23 118.81 16.74L118.81 16.74L118.81 15.76Q118.81 13.17 117.63 11.94Q116.46 10.72 114.68 10.72L114.68 10.72Q112.86 10.72 111.68 11.93Q110.51 13.13 110.51 15.62L110.51 15.62ZM123.74 15.62L123.74 16.60Q123.74 19.43 122.59 21.41Q121.43 23.39 119.38 24.41Q117.34 25.42 114.68 25.42L114.68 25.42Q111.98 25.42 109.95 24.41Q107.92 23.39 106.75 21.45Q105.58 19.50 105.58 16.74L105.58 16.74L105.58 15.76Q105.58 12.92 106.75 10.93Q107.92 8.93 109.97 7.88Q112.02 6.83 114.68 6.83L114.68 6.83Q117.34 6.83 119.38 7.88Q121.43 8.93 122.59 10.89Q123.74 12.85 123.74 15.62L123.74 15.62ZM131.48 25L126.61 25L126.61 0.74L131.48 0.74L131.48 25ZM145.86 25L142.61 25Q140.37 25 139.18 24.44Q137.99 23.88 137.51 22.83Q137.04 21.78 137.04 20.27L137.04 20.27L137.04 2.98L141.91 2.18L141.91 19.40Q141.91 20.63 142.31 21.01Q142.71 21.39 144.00 21.39L144.00 21.39L145.86 21.39L145.86 25ZM146.07 10.86L133.78 10.86L133.78 7.25L146.07 7.25L146.07 10.86Z"></path></g>
        
      </svg>